<svg width="64" height="64" viewBox="0 0 64 64" fill="none" xmlns="http://www.w3.org/2000/svg">
  <circle cx="32" cy="32" r="32" fill="#1DB954"/>
  <path d="M44.8 28.8C37.6 24.4 26 23.6 19.6 26c-1.2.4-2-.8-1.6-2 .4-1.2 1.2-1.6 2.4-2 7.2-2.8 19.6-2 27.6 2.8 1.2.8 1.6 2 .8 3.2-.8 1.2-2.4 1.6-3.2.8h-.8zm-.4 6.4c-.8.8-2 1.2-2.8.4-6-3.6-14.8-4.8-22-2.8-1.2.4-2-.4-2.4-1.2-.4-1.2.4-2 1.2-2.4 8.4-2.4 18-1.2 24.8 3.2.8.4 1.2 2 .4 2.8h.8zm-3.2 6.4c-.4.8-1.6 1.2-2.4.8-5.2-3.2-12-3.6-20-2.4-1.2.4-1.6 0-2-.8-.4-1.2 0-1.6.8-2 8.8-1.6 16.4-.8 22.4 2.8.8.4 1.2 1.2.8 2v-.4z" fill="white"/>
</svg>
